<?xml version="1.0" encoding="utf-8"?>
<!-- Generator: Adobe Illustrator 19.1.0, SVG Export Plug-In . SVG Version: 6.00 Build 0)  -->
<svg version="1.1" id="Layer_1" xmlns="http://www.w3.org/2000/svg" xmlns:xlink="http://www.w3.org/1999/xlink" x="0px" y="0px"
	 viewBox="-294 607.8 260 40.1" style="enable-background:new -294 607.8 260 40.1;" xml:space="preserve">
<style type="text/css">
	.st0{fill:#383434;}
</style>
<path class="st0" d="M-66.4,647.9c-10.3,0-15.1-9.8-19.4-18.5c-4.4-8.8-7.6-14.6-13.1-14.6s-8.8,5.8-13.1,14.6
	c-4.3,8.7-9.1,18.5-19.4,18.5s-15.1-9.8-19.4-18.5c-4.4-8.8-7.6-14.6-13.2-14.6c-5.5,0-8.8,5.8-13.1,14.6
	c-4.3,8.7-9.1,18.5-19.4,18.5s-15.1-9.8-19.4-18.5c-4.3-8.8-7.6-14.6-13.1-14.6s-8.8,5.8-13.1,14.6c-4.3,8.7-9.1,18.5-19.4,18.5
	c-10.3,0-15.1-9.8-19.4-18.5c-4.3-8.8-7.1-14.6-13.1-14.6v-7c10,0,15.1,9.8,19.4,18.5c4.3,8.8,7.6,14.6,13.1,14.6s8.8-5.8,13.1-14.6
	c4.3-8.7,9.1-18.5,19.4-18.5s15.1,9.8,19.4,18.5c4.3,8.8,7.6,14.6,13.1,14.6s8.8-5.8,13.1-14.6c4.3-8.7,9.1-18.5,19.4-18.5
	s15.1,9.8,19.4,18.5c4.3,8.8,7.6,14.6,13.1,14.6s8.8-5.8,13.1-14.6c4.3-8.7,9.1-18.5,19.5-18.5c10.3,0,15.1,9.8,19.4,18.5
	c4.3,8.8,7.6,14.6,13.1,14.6s8.7-5.8,13.1-14.6c4.2-8.7,9.3-18.5,19.3-18.5v7c-5,0-8.7,5.8-13.1,14.6
	C-51.3,638-56.1,647.9-66.4,647.9z"/>
</svg>
