<?xml version="1.0" encoding="utf-8"?>
<!-- Generator: Adobe Illustrator 19.1.0, SVG Export Plug-In . SVG Version: 6.00 Build 0)  -->
<svg version="1.1" id="Layer_1" xmlns="http://www.w3.org/2000/svg" xmlns:xlink="http://www.w3.org/1999/xlink" x="0px" y="0px"
	 viewBox="-436 844.6 363.4 299.4" style="enable-background:new -436 844.6 363.4 299.4;" xml:space="preserve">
<style type="text/css">
	.st0{fill:none;stroke:#FFFFFF;stroke-width:2;stroke-linecap:round;stroke-linejoin:round;stroke-miterlimit:10;}
</style>
<path class="st0" d="M-246.8,974.3c-4.4,12.5-7.7,28.9,2.9,36.7c5.2,3.8,12.2,4,18.5,2.6c19.9-4.4,34.8-25.3,32.4-45.6
	c-17.8-7.1-39-5.1-55.2,5.2c-9.1,5.8-17,15.3-16.2,26.1c15.4,5.1,32.3,0.7,47.5-5c10.7-4,21.4-8.9,29.9-16.6s14.6-18.8,14-30.2
	c-38.5-12.4-83-4.7-115.1,20.1c-6.5,5-12.9,14.4-7.4,20.5c31.4,7,64.3,6.9,95.6-0.5c4.4-1,9-2.3,12.4-5.2c8.6-7.2,6.6-22-1.3-30
	s-19.4-10.9-30.5-12.8c-23.7-4.2-49.8-5.4-70.1,7.6c-17.1,11-27.4,32.3-23.8,52.3c3.6,20,21.7,36.9,42,37.5
	c20.3,0.6,40-16.3,41-36.6c-2.1-2.1-5.7-0.9-8.1,0.7c-14,9.3-17.2,29.9-10,45.1c7.1,15.2,22.2,25.3,38,30.9
	c12.3,4.3,26.3,6.3,38.2,1c12.8-5.7,20.9-18.6,26.6-31.4c5.4-12.4,9.3-25.6,11.4-39c2.4-14.9,2.2-31.7-7.4-43.4
	c-8.2-9.9-21.4-14-34-16.6c-26.2-5.3-53.2-6.3-79.7-2.9c-13.8,1.8-27.9,5-38.8,13.7c-10.8,8.7-17.2,24.2-11.7,36.9
	c4.2,9.5,13.8,15.5,23.5,19.4c16.1,6.6,33.6,9.3,51.1,9.7c16.1,0.4,32.8-1.5,46.7-9.6c23-13.6,33-41.3,39.5-67.2
	c2.8-11,5.1-22.8,0.9-33.3c-6.1-15.3-23.9-22.3-40.2-24.9c-58.3-9.4-120.9,17.3-154.4,65.9c-9.7,14.1-17.2,31.3-13.1,47.9
	c5.8,23.3,31.4,35.1,54.5,41.6c30.1,8.4,64.7,12.4,90.6-5.1c26.3-17.8,35.3-52.4,36.5-84.2c0.5-14.1-0.2-28.6-6.2-41.3
	c-8.4-18-26.6-30.2-46-34.3s-39.8-0.8-58.4,6.3c-7.3,2.8-14.3,6.1-20.8,10.4c-18.5,12.3-31.4,32.1-37.2,53.6s-4.7,44.4,1,65.9
	c8.2,30.8,26,59.1,50.3,79.8c25.5,21.7,57.3,34.8,89.8,42.5c14.9,3.6,30.5,6.1,45.6,3.3c24.3-4.5,44.5-22.5,56.7-44
	s17.3-46.2,20.5-70.7c1.7-13,2.6-27.2-4.4-38.3c-8.5-13.3-25.7-17.7-41.3-19.1c-35.7-3.3-72.2,3.1-104.6,18.3
	c-28.6,13.5-55.5,36.2-62,67.2c-2.5,12-1.4,25.5,6.4,35c7.2,8.8,18.8,12.8,30,14.9c30.4,5.6,62.7,0.5,89.8-14.4
	c27.1-14.8,48.9-39.2,60.5-67.8c6.6-16.2,10-33.6,12.8-50.9c3.7-23.5,5.9-49.1-6.2-69.6c-12.5-21.2-37.6-32-62-34.9
	c-34.5-4.1-69.7,4.7-100.5,20.8c-11.8,6.2-23.1,13.5-32.8,22.7c-11.6,11.2-20.6,25.1-26,40.3c-5.4,15.5-7.1,32.8-1.5,48.2
	c8.6,23.9,32.4,39,56.1,48c25.1,9.5,52.6,14.4,79,9.6s51.6-20.2,64.4-43.9c6-11.1,9.1-23.6,11.6-36c3.4-17.7,5.6-36.1,1.2-53.5
	c-8.2-33.4-38.7-57.1-70.9-68.4c-17.5-6.1-36.1-9.4-54.6-9.7c-60.8-0.9-117.6,30.2-165.6,67.3c-17,13.1-34.2,28.5-39.6,49.3
	c7.2,13.5,23.7,18.6,38.6,21.8c39.7,8.4,80.4,11.8,120.9,10.1c16.2-0.7,32.6-2.3,47.8-8s29.2-16.1,36.4-30.6
	c5.2-10.5,6.4-23.7,0.4-33.8c-5.8-9.5-16.8-14.6-27.5-17.6c-26.1-7.3-54.6-5.7-79.8,4.5"/>
</svg>
