<?xml version="1.0" encoding="utf-8"?>
<!-- Generator: Adobe Illustrator 19.1.0, SVG Export Plug-In . SVG Version: 6.00 Build 0)  -->
<svg version="1.1" id="Layer_1" xmlns="http://www.w3.org/2000/svg" xmlns:xlink="http://www.w3.org/1999/xlink" x="0px" y="0px"
	 viewBox="0 0 148.8 148.8" style="enable-background:new 0 0 148.8 148.8;" xml:space="preserve">
<style type="text/css">
	.st0{fill:#010101;}
</style>
<path class="st0" d="M74.4,0C33.4,0,0,33.4,0,74.4s33.4,74.4,74.4,74.4s74.4-33.4,74.4-74.4S115.4,0,74.4,0z M74.7,103
	c-8.2,0-13.7-6.1-14-15.2l7.9-1.5c0.3,5.8,2.1,8.8,6.1,8.8c3,0,5.2-2.4,5.2-6.1c0-2.1-0.6-3.9-2.1-6.1c-1.2-1.8-1.8-2.4-6.4-6.7
	c-7-6.4-9.4-10.9-9.4-17C62,51,67.1,45.6,75,45.6c7.3,0,11.5,4.6,12.8,13.4l-8.2,1.2c-0.6-5.2-1.8-6.7-4.9-6.7
	c-2.7,0-4.6,2.1-4.6,5.5c0,3.9,1.5,6.1,7.6,11.5c8.8,7.9,10.9,11.5,10.9,18.2C87.8,97.2,82.6,103,74.7,103z"/>
</svg>
